Coordinates
version=1
nRows=5
nColumns=63
inDegrees=yes

Units are S.I. units (second, meters, Newtons, ...)
If the header above contains a line with 'inDegrees', this indicates whether rotational values are in degrees (yes) or radians (no).

endheader
time	pelvis_tilt	pelvis_list	pelvis_rotation	pelvis_tx	pelvis_ty	pelvis_tz	hip_flexion_r	hip_adduction_r	hip_rotation_r	knee_angle_r	knee_angle_r_beta	ankle_angle_r	subtalar_angle_r	mtp_angle_r	hip_flexion_l	hip_adduction_l	hip_rotation_l	knee_angle_l	knee_angle_l_beta	ankle_angle_l	subtalar_angle_l	mtp_angle_l	L5_S1_Flex_Ext	L5_S1_Lat_Bending	L5_S1_axial_rotation	L4_L5_Flex_Ext	L4_L5_Lat_Bending	L4_L5_axial_rotation	L3_L4_Flex_Ext	L3_L4_Lat_Bending	L3_L4_axial_rotation	L2_L3_Flex_Ext	L2_L3_Lat_Bending	L2_L3_axial_rotation	L1_L2_Flex_Ext	L1_L2_Lat_Bending	L1_L2_axial_rotation	L1_T12_Flex_Ext	L1_T12_Lat_Bending	L1_T12_axial_rotation	Abs_r3	Abs_r2	Abs_r1	Abs_t1	Abs_t2	neck_flexion	neck_bending	neck_rotation	arm_flex_r	arm_add_r	arm_rot_r	elbow_flex_r	pro_sup_r	wrist_flex_r	wrist_dev_r	arm_flex_l	arm_add_l	arm_rot_l	elbow_flex_l	pro_sup_l	wrist_flex_l	wrist_dev_l
      0.00000000	      4.65870659	     -4.78081263	     85.11631784	      0.12623268	      0.98905737	      0.33827091	     -3.99866390	      0.40644550	     -7.64745228	      2.82327012	      0.04927536	     34.67821146	     14.71787366	      0.00000000	      0.30860128	     -0.47449441	    -15.53801478	     13.76040723	      0.24016441	     38.56449809	      9.27303776	      0.00000000	      0.11542175	      0.19157154	     -0.27061405	      0.21434974	      0.25479014	     -0.28752743	      0.18962640	      0.46578703	     -0.28752743	      0.13191552	      0.46578703	     -0.23678730	      0.10718064	      0.39065268	     -0.21987392	      0.06595199	      0.29674431	     -0.20296054	      0.82444604	      2.16709554	     -1.50507419	      0.00000000	      0.00000000	     25.10027605	      2.70992361	      5.12665271	      1.98464173	    -15.75200209	     48.54666455	     76.82222728	     78.68551098	     20.77155851	     13.69377619	     -5.14730799	    -20.64420869	     39.64675403	     81.72487095	     88.22705659	      9.51562164	    -11.30129574
      0.01694915	      5.50185234	     -4.58362040	     84.90272824	      0.12549490	      0.98888000	      0.33938417	     -4.23337167	      1.17143524	     -7.70910472	      3.02655060	      0.05282327	     33.64132072	     14.42272668	      0.00000000	     -0.21552685	     -1.32648627	    -15.57585990	     13.98567756	      0.24409612	     37.96175089	      8.19722908	      0.00000000	      0.07894826	      0.29588182	     -0.42128014	      0.14661481	      0.39352282	     -0.44761014	      0.12970410	      0.71940706	     -0.44761014	      0.09022997	      0.71940706	     -0.36862012	      0.07331135	      0.60336221	     -0.34229011	      0.04511104	      0.45832094	     -0.31596010	      0.56391952	      3.34707433	     -2.34303373	      0.00000000	      0.00000000	     22.95605500	      3.56981090	      5.65636296	      3.20433879	    -16.46373223	     51.26974282	     76.26192723	     74.63784744	     18.39616011	     13.39068694	     -5.49148124	    -20.36870305	     39.37788124	     81.27969038	     87.40070065	     10.61313437	     -9.99201230
      0.03389831	      6.03803544	     -4.44126886	     84.78480945	      0.12503011	      0.98865066	      0.34013545	     -4.44057334	      1.66680384	     -7.72299138	      3.12641760	      0.05456628	     32.97206264	     14.01739852	      0.00000000	     -0.63026882	     -1.79688350	    -15.02538895	     14.04085312	      0.24505912	     37.29899893	      6.79186033	      0.00000000	      0.05736390	      0.35933783	     -0.48254580	      0.10653049	      0.47791931	     -0.51270491	      0.09424314	      0.87369400	     -0.51270491	      0.06556120	      0.87369400	     -0.42222758	      0.05326811	      0.73276170	     -0.39206846	      0.03277773	      0.55661430	     -0.36190935	      0.40974457	      4.06490139	     -2.68377499	      0.00000000	      0.00000000	     21.52206615	      4.03052929	      5.80044493	      3.87458230	    -16.99696881	     53.01340180	     76.15789969	     71.51913777	     16.44393935	     13.37440438	     -5.63600391	    -20.40728272	     39.68092405	     81.05067692	     86.44655442	     10.95281968	     -9.52805551
      0.05084746	      6.46983668	     -4.31690281	     84.68293621	      0.12488585	      0.98853719	      0.34085156	     -4.68057188	      2.08701604	     -7.75108922	      3.06769828	      0.05354144	     32.49617657	     13.85883421	      0.00000000	     -0.95147786	     -2.20082696	    -14.56297564	     14.08193764	      0.24577618	     36.76283096	      5.90518792	      0.00000000	      0.03532198	      0.40875389	     -0.43122423	      0.06559646	      0.54364268	     -0.45817574	      0.05803049	      0.99384422	     -0.45817574	      0.04036950	      0.99384422	     -0.37732120	      0.03279999	      0.83353094	     -0.35036969	      0.02018298	      0.63315978	     -0.32341817	      0.25230140	      4.62390580	     -2.39833980	      0.00000000	      0.00000000	     20.93725668	      4.00587423	      5.65860967	      3.85416276	    -17.34037912	     53.29438740	     76.29176026	     70.08323410	     15.65023399	     13.45341496	     -5.31393012	    -20.63735026	     40.63288932	     80.88969501	     85.77130214	     10.99466273	     -9.41031012
      0.06779661	      6.56241356	     -4.28176663	     84.65460685	      0.12502257	      0.98828514	      0.34121488	     -4.76726471	      2.18203081	     -7.87156075	      3.09733239	      0.05405865	     32.43478579	     13.76948342	      0.00000000	     -1.09485860	     -2.34265292	    -14.46620274	     14.16509354	      0.24722752	     36.39184890	      5.94600726	      0.00000000	      0.03682294	      0.41480460	     -0.39664959	      0.06838389	      0.55169012	     -0.42144019	      0.06049641	      1.00855591	     -0.42144019	      0.04208494	      1.00855591	     -0.34706839	      0.03419379	      0.84586955	     -0.32227779	      0.02104063	      0.64253233	     -0.29748719	      0.26302260	      4.69235264	     -2.20604603	      0.00000000	      0.00000000	     20.88380043	      4.02161902	      5.62618389	      3.80316040	    -17.39999060	     53.31545694	     76.36352743	     70.02915166	     15.63841076	     13.47226534	     -5.56564111	    -20.88116642	     40.80224134	     81.05717609	     85.77345674	     11.04090874	     -9.45735257
